<svg width="72" height="42" viewBox="0 0 72 42" fill="none" xmlns="http://www.w3.org/2000/svg">
<g clip-path="url(#clip0_5_201)">
<path d="M70.6875 27.252C69.7363 26.847 68.1423 26.9269 66.3409 28.0036L66.3516 27.9769C66.3516 27.9769 69.561 19.4916 69.6673 19.2091C70.0711 18.1272 69.9648 17.2637 69.5769 16.736C69.4335 16.5442 69.0456 16.1338 68.2857 16.1124C67.7331 16.0964 67.138 16.3096 66.8245 16.4855C66.6438 16.5868 66.6491 16.768 66.6544 16.8906C66.6704 17.2904 66.5163 18.1165 66.309 18.7081C65.7139 20.403 64.9594 22.1033 64.7575 22.551C64.3058 23.5584 63.0837 26.0315 61.4789 27.364C60.7403 27.9822 60.0496 28.318 59.4544 28.3233C58.567 28.318 58.4927 26.9322 59.0878 25.4772C59.0878 25.4772 61.4417 19.5503 61.4896 19.4223C62.6214 16.4429 60.5544 15.4995 58.5617 16.5069C58.4395 16.5708 58.3067 16.6934 58.4023 16.7947C58.684 17.0931 58.5458 17.9086 58.0888 19.2891C58.0888 19.2891 56.7817 22.7802 55.7668 24.8909C53.9601 28.6538 50.9154 28.7657 52.2332 25.0241C52.552 24.1074 57.8338 9.78046 57.8338 9.78046C58.4289 8.08553 58.6149 7.00888 57.8391 6.27868C57.0633 5.54848 55.7933 5.69771 54.89 6.18274C54.7625 6.25203 54.6031 6.39594 54.7147 6.49188C55.1344 6.83832 54.9803 7.71777 54.5552 9.10888C53.4075 12.3388 49.5179 23.1107 48.588 25.8449C47.7538 28.2914 49.0078 29.5812 50.7188 29.6239C51.9994 29.6558 53.9389 28.9789 55.8199 26.6391C55.8624 27.817 56.3831 29.1708 58.3545 29.5706L58.3492 29.5759C60.836 30.0609 62.4035 28.334 63.0252 27.6305C63.2112 27.4226 63.4928 27.0921 63.6522 26.9162L63.5141 27.3746C63.2484 28.1048 63.0624 28.6805 62.818 29.368C62.7648 29.5119 62.7117 29.6612 62.6532 29.8211C60.5916 31.42 58.3598 33.4614 56.957 35.0178C54.4171 37.8213 54.1461 41.2112 56.5054 41.8827C60.0283 42.8794 62.4673 38.3756 64.7734 32.1982L65.7086 29.7251L65.8361 29.3893L65.8414 29.3733C68.9924 27.2414 71.1232 29.2188 71.2029 30.3221C71.2135 30.4766 71.4314 30.498 71.5217 30.402C72.4357 29.3947 72 27.8117 70.6875 27.252ZM62.191 31.6599C60.2462 36.6754 58.4448 40.2091 56.7232 40.0386C55.9634 39.964 55.8518 39.1272 56.2928 38.0718C57.3715 35.5188 61.2558 32.2942 62.2228 31.516L62.191 31.6599Z" fill="#5F0080"/>
<path d="M48.4977 16.4749C46.877 15.7447 44.9481 16.6455 42.4135 19.8274H42.4029C43.0406 18.2391 43.1521 17.2051 42.5145 16.5868C41.7121 15.798 40.1977 16.299 39.7567 16.5282C39.6026 16.6081 39.4963 16.6881 39.5601 16.8373C39.8417 17.4716 39.3848 18.8361 38.8746 20.2752C38.678 20.8295 38.1786 22.2259 37.5781 23.6383C36.611 25.9196 34.6184 28.2274 33.0721 27.8064C32.5461 27.6625 32.3654 26.879 32.6311 26.1328L35.1179 18.948C36.0478 15.9099 33.561 15.7021 32.1848 16.4642C32.0041 16.5655 31.8659 16.6828 31.9403 16.7947C32.2432 17.2211 31.9563 18.3724 31.7809 18.868C31.0848 20.8028 30.3622 23.585 28.8159 25.8076C27.9445 27.1668 26.7276 28.0622 25.8137 28.0142C24.8679 27.9183 24.5012 26.8843 25.1548 24.8589C25.4098 24.0594 26.6851 20.563 27.3918 18.3404C28.0614 16.2244 25.6808 15.718 24.2036 16.5015C24.0814 16.5655 23.9433 16.6881 24.0336 16.784C24.3046 17.0825 24.2302 17.9246 23.7732 19.2092C23.2313 20.7389 22.3492 23.1107 21.8391 25.3972C21.2227 28.1475 22.4076 29.4373 24.2993 29.6132C26.2175 29.7891 28.0507 28.5046 29.3048 26.9109C28.9753 28.8084 30.4472 29.5706 31.2655 29.6452C32.7108 29.7785 34.3474 29.0269 35.9681 27.4759C35.6918 28.7871 36.271 29.6132 37.695 29.6186C38.3964 29.6186 39.1084 29.3201 39.2413 29.0962C39.2572 29.0642 39.2679 29.0376 39.2519 29.0109C39.2253 28.963 39.1084 28.7924 39.3476 28.0729C40.3306 25.1147 41.3136 22.9561 42.2648 21.6663C43.3222 20.2272 44.7994 19.0599 45.8143 19.1665C46.8026 19.2678 46.8611 20.4137 46.5157 20.9467C46.3403 21.1972 46.4785 21.3198 46.6538 21.3038C49.5073 21.0693 50.5966 17.4183 48.4977 16.4749Z" fill="#5F0080"/>
<path d="M26.5151 4.44518L28.4758 4.10407L29.0816 5.07412L30.1496 4.88757L27.3493 0.554321L26.4088 0.71955L25.2345 5.75102L26.276 5.5698L26.5151 4.44518ZM27.073 1.86549L27.9498 3.26727L26.717 3.48046L27.073 1.86549Z" fill="#5F0080"/>
<path d="M32.4931 4.75434L32.4452 3.24597L33.2423 3.21932H33.2582L34.3156 4.69571L35.5271 4.6584L34.3263 3.01145C34.9161 2.7716 35.3093 2.27592 35.288 1.51906V1.5084C35.2721 1.06602 35.1233 0.698251 34.8523 0.442414C34.5282 0.138607 34.0606 -0.015962 33.4601 2.78588e-05L31.3081 0.0693172L31.4569 4.78632L32.4931 4.75434ZM33.4017 0.943429C33.9065 0.927439 34.22 1.14597 34.2359 1.59368V1.60967C34.2466 2.00942 33.9702 2.28658 33.4654 2.30257L32.4187 2.33455L32.3762 0.980738L33.4017 0.943429Z" fill="#5F0080"/>
<path d="M38.1467 3.40588L38.7524 2.89954L39.9905 5.04751L41.2286 5.18075L39.5176 2.26527L41.6324 0.474409L40.389 0.346491L38.2742 2.19598L38.4921 0.143953L37.4612 0.0373535L36.967 4.73304L37.9979 4.83964L38.1467 3.40588Z" fill="#5F0080"/>
<path d="M46.1863 5.39394L43.7049 4.79166L43.9334 3.82694L46.0907 4.3546L46.3086 3.45384L44.1512 2.9315L44.3797 1.99876L46.8293 2.59572L47.0472 1.70029L43.5933 0.858154L42.488 5.44724L45.9685 6.2947L46.1863 5.39394Z" fill="#5F0080"/>
<path d="M48.6146 7.23277L49.5817 7.60054L50.9208 4.0881L52.3023 4.61577L52.6424 3.72034L48.9228 2.29724L48.5828 3.19267L49.9537 3.71501L48.6146 7.23277Z" fill="#5F0080"/>
<path d="M20.3513 7.28069L19.3736 4.38119L21.1961 5.80429L21.2971 5.77231L21.8922 3.50708L22.8699 6.42789L23.8477 6.09744L22.3439 1.62561L21.2865 1.98272L20.7498 4.26927L18.9432 2.77688L17.8857 3.13399L19.3842 7.60581L20.3513 7.28069Z" fill="#5F0080"/>
<path d="M27.0465 30.6153C26.3026 31.3615 24.8573 31.8891 23.497 31.8092C21.1058 31.6653 19.5596 30.3914 18.0877 27.6358C16.7486 25.1307 14.9314 21.0533 14.3894 19.6142C18.7625 17.6741 23.7255 13.8739 24.395 11.1983C24.565 10.5267 24.4003 9.79648 23.9646 9.50867C23.7202 9.34877 23.5714 9.40207 23.4651 9.54065C22.6255 12.6373 15.2608 17.4343 11.1427 18.4257C12.5562 14.4495 13.9909 10.3721 14.0759 10.0363C14.9261 6.67846 12.9653 5.61247 10.8771 5.831C5.39337 6.40664 -0.531352 13.4422 0.0372089 19.3051C0.0903454 19.8701 0.430419 20.9787 1.44533 21.2079C2.24237 21.3838 2.90127 20.9307 3.06599 20.3018C3.08725 20.2219 3.00754 20.1419 2.92784 20.1632C2.58776 20.2379 1.89699 19.6835 1.72695 18.7028C0.770493 13.0264 7.47101 6.88633 10.3616 7.65385C10.9674 7.81374 11.1693 8.54928 10.792 9.68456C9.71869 12.7226 5.73876 24.0541 4.72385 26.9696C3.5761 30.2688 5.62717 31.5853 7.85891 30.8818C8.08208 30.8125 8.15116 30.6099 8.013 30.5193C7.43381 30.1196 7.49758 28.7338 8.32651 26.2074C8.37965 26.0475 10.1278 21.2452 10.1969 21.064C10.5901 20.9201 10.978 20.7868 11.3022 20.6696C15.2874 30.029 17.4129 33.8132 22.9816 33.4348C25.5321 33.2642 26.9934 31.548 27.3653 30.9137C27.4982 30.6952 27.2165 30.4447 27.0465 30.6153Z" fill="#5F0080"/>
</g>
<defs>
<clipPath id="clip0_5_201">
<rect width="72" height="42" fill="white"/>
</clipPath>
</defs>
</svg>
