<svg width="136" height="80" viewBox="0 0 68 40" fill="none" xmlns="http://www.w3.org/2000/svg">
<path d="M66.7565 25.955C65.8583 25.5689 64.3511 25.6455 62.6502 26.6705L62.6586 26.6449C62.6586 26.6449 65.6871 18.562 65.7882 18.2951C66.1699 17.2645 66.0716 16.4412 65.704 15.9387C65.5692 15.7541 65.2044 15.3652 64.4858 15.3482C63.9666 15.334 63.4052 15.5355 63.1049 15.703C62.9337 15.7996 62.9393 15.9699 62.9421 16.0892C62.9589 16.4696 62.8102 17.2589 62.6165 17.8182C62.0523 19.4336 61.3394 21.0491 61.1485 21.4749C60.7219 22.4317 59.5655 24.7881 58.0499 26.0572C57.351 26.6449 56.6998 26.9657 56.1384 26.9686C55.2992 26.9629 55.2318 25.6455 55.7932 24.2572C55.7932 24.2572 58.0162 18.6159 58.0611 18.491C59.1305 15.6548 57.1769 14.7548 55.2936 15.7144C55.1785 15.774 55.055 15.8904 55.142 15.9869C55.4059 16.2709 55.2796 17.0488 54.8445 18.3604C54.8445 18.3604 53.6123 21.685 52.6524 23.6922C50.9431 27.2752 48.0717 27.3802 49.3123 23.82C49.6155 22.9456 54.6031 9.30372 54.6031 9.30372C55.1645 7.69111 55.3413 6.66336 54.6059 5.97062C53.8706 5.27504 52.6721 5.417 51.8216 5.88261C51.7009 5.95075 51.5493 6.08703 51.656 6.17504C52.0546 6.50437 51.9058 7.34474 51.5016 8.66776C50.4182 11.7453 46.7441 22.003 45.8656 24.6064C45.0797 26.9345 46.2642 28.1667 47.8781 28.2064C49.085 28.2376 50.9178 27.5903 52.6945 25.3616C52.7366 26.4831 53.225 27.7749 55.0887 28.1553L55.0859 28.161C57.4352 28.6209 58.9143 26.9799 59.5038 26.3071C59.6806 26.1083 59.9472 25.7932 60.096 25.6257L59.9641 26.0601C59.7143 26.7585 59.5375 27.3064 59.3073 27.9566C59.2596 28.0928 59.2063 28.2376 59.1529 28.3853C57.205 29.9099 55.0971 31.8518 53.7723 33.331C51.3725 36.0026 51.1171 39.2306 53.3457 39.8666C56.6745 40.8177 58.9789 36.525 61.1542 30.6424L62.0383 28.2859L62.159 27.9651L62.1646 27.9509C65.1426 25.9238 67.1523 27.8033 67.228 28.8537C67.2393 29.0014 67.4442 29.0241 67.5284 28.9304C68.4097 27.9935 67.9971 26.4859 66.7565 25.955ZM58.7319 30.1483C56.8935 34.9237 55.1926 38.2909 53.5674 38.129C52.8517 38.0581 52.745 37.2603 53.1604 36.2552C54.1765 33.825 57.8478 30.7531 58.7628 30.0121L58.7319 30.1483Z" fill="white"/>
<path d="M45.8039 15.6917C44.2714 14.9961 42.4497 15.8535 40.0584 18.8857L40.0499 18.8828C40.6506 17.3724 40.7573 16.3873 40.1538 15.7967C39.3932 15.0472 37.9673 15.5213 37.5463 15.74C37.4003 15.8166 37.2993 15.8904 37.361 16.0324C37.6277 16.6399 37.1954 17.9346 36.7127 19.3087C36.5274 19.8339 36.0531 21.1655 35.4889 22.5112C34.5739 24.6831 32.6934 26.8834 31.2338 26.4802C30.7342 26.3411 30.5658 25.5973 30.8184 24.8847L33.1677 18.0425C34.0434 15.1523 31.6969 14.9535 30.3946 15.6803C30.2234 15.7769 30.0915 15.8904 30.1644 15.9955C30.4507 16.4015 30.1813 17.4974 30.0129 17.9686C29.3533 19.8112 28.6712 22.4629 27.2117 24.5781C26.3921 25.8727 25.2413 26.7272 24.3769 26.679C23.4843 26.5881 23.1391 25.6001 23.7509 23.6752C23.9951 22.9115 25.1992 19.5869 25.8644 17.469C26.4988 15.4532 24.2505 14.9734 22.8556 15.7172C22.7405 15.7797 22.6086 15.8933 22.6956 15.987C22.951 16.2737 22.878 17.0743 22.4514 18.2951C21.9406 19.7516 21.1098 22.0087 20.6242 24.1891C20.0432 26.8096 21.1603 28.0389 22.9454 28.2064C24.7558 28.3768 26.4876 27.1503 27.6692 25.6342C27.3577 27.4399 28.747 28.1638 29.5217 28.2348C30.8858 28.3597 32.4323 27.6471 33.962 26.1679C33.701 27.42 34.2483 28.2036 35.5928 28.2093C36.2552 28.2121 36.9288 27.9282 37.0523 27.7096C37.0691 27.6812 37.0748 27.6556 37.0635 27.6301C37.0383 27.5847 36.9288 27.4228 37.1561 26.7358C38.0852 23.9165 39.0142 21.8639 39.9096 20.6346C40.9116 19.2633 42.3038 18.1532 43.2609 18.2526C44.1956 18.3462 44.2461 19.4421 43.9205 19.9475C43.7549 20.1831 43.884 20.3024 44.0524 20.2882C46.7582 20.0639 47.7826 16.5888 45.8039 15.6917Z" fill="white"/>
<path d="M25.0392 4.23593L26.8917 3.90944L27.4614 4.83214L28.4691 4.65328L25.8223 0.525238L24.9353 0.681388L23.8295 5.47378L24.8118 5.30059L25.0392 4.23593ZM25.5697 1.77444L26.3977 3.10881L25.2329 3.31323L25.5697 1.77444Z" fill="white"/>
<path d="M30.6892 4.52836L30.6443 3.08894L31.3994 3.06339H31.4106L32.407 4.47158L33.5494 4.43467L32.4126 2.86465C32.9712 2.63468 33.3445 2.16623 33.3192 1.44226V1.43091C33.3052 1.00788 33.162 0.658674 32.9066 0.417351C32.6063 0.130602 32.1628 -0.0141915 31.5986 0.00284311L29.5665 0.0681423L29.7069 4.56243L30.6892 4.52836ZM31.5481 0.897158C32.0253 0.882962 32.3228 1.09022 32.3368 1.51324V1.52744C32.3481 1.90504 32.0842 2.17191 31.6071 2.18611L30.6163 2.21734L30.577 0.928388L31.5481 0.897158Z" fill="white"/>
<path d="M36.0277 3.24226L36.5975 2.75962L37.768 4.80944L38.9384 4.93436L37.3217 2.16057L39.3201 0.454273L38.1441 0.329353L36.1484 2.09243L36.3505 0.139134L35.3794 0.0369263L34.9135 4.50566L35.8874 4.61071L36.0277 3.24226Z" fill="white"/>
<path d="M43.6174 5.13876L41.2737 4.56242L41.4926 3.6454L43.5304 4.14508L43.7353 3.29051L41.6975 2.79083L41.9109 1.90503L44.2236 2.47285L44.4313 1.61828L41.1727 0.817657L40.1229 5.18702L43.4125 5.99333L43.6174 5.13876Z" fill="white"/>
<path d="M45.9133 6.88764L46.8283 7.23968L48.0914 3.89239L49.3937 4.39491L49.7137 3.54318L46.2052 2.1861L45.8853 3.04066L47.1764 3.54034L45.9133 6.88764Z" fill="white"/>
<path d="M19.2179 6.93306L18.2973 4.17063L20.0151 5.52771L20.1133 5.49648L20.6747 3.33877L21.6009 6.12108L22.5215 5.80594L21.1013 1.5473L20.1021 1.88799L19.5969 4.06558L17.8875 2.64319L16.8883 2.98388L18.3085 7.24253L19.2179 6.93306Z" fill="white"/>
<path d="M25.5445 29.1575C24.8428 29.8673 23.4759 30.3726 22.1932 30.296C19.9338 30.1625 18.4742 28.9446 17.0877 26.3213C15.8246 23.9364 14.1069 20.0525 13.5932 18.6813C17.7248 16.833 22.4122 13.2132 23.0437 10.6665C23.2037 10.0249 23.0465 9.33211 22.6367 9.05672C22.4094 8.90341 22.2634 8.95168 22.1652 9.08511C21.3708 12.0349 14.4184 16.603 10.5254 17.5456C11.8615 13.7583 13.2143 9.87438 13.2929 9.55356C14.0957 6.35674 12.246 5.34319 10.2728 5.55044C5.09429 6.09839 -0.499633 12.8015 0.0364627 18.386C0.0869848 18.9226 0.406958 19.9816 1.36407 20.1973C2.11629 20.3648 2.73659 19.9361 2.89377 19.3314C2.91342 19.2547 2.84044 19.1809 2.76466 19.198C2.44468 19.2661 1.7907 18.7437 1.63352 17.804C0.726932 12.404 7.05343 6.56116 9.78724 7.29081C10.357 7.44412 10.5507 8.14537 10.1942 9.22423C9.18097 12.1173 5.42549 22.9087 4.46276 25.6881C3.37654 28.831 5.31603 30.0831 7.42392 29.413C7.63162 29.3477 7.69899 29.1575 7.57268 29.0667C7.02817 28.6862 7.08711 27.366 7.8702 24.9585C7.92072 24.808 9.57392 20.2314 9.63286 20.0611C10.0062 19.9248 10.371 19.7999 10.677 19.6835C14.4409 28.5954 16.4477 32.201 21.7077 31.8376C24.1131 31.6729 25.4968 30.0376 25.8505 29.4357C25.9684 29.2342 25.7045 28.9957 25.5445 29.1575Z" fill="white"/>
</svg>
